<svg width="96" height="645" viewBox="0 0 96 645" fill="none" xmlns="http://www.w3.org/2000/svg">
<path d="M49.8144 644.263V640.548H47.9991C23.6668 640.548 3.87278 620.762 3.87278 596.448C3.87278 572.134 23.6668 552.355 47.9991 552.355H49.8144V483.607C75.3084 482.649 95.7559 461.622 95.7559 435.915C95.7559 410.208 75.3084 389.188 49.8144 388.23V321.847H47.9991C23.6668 321.847 3.87278 302.068 3.87278 277.754C3.87278 253.44 23.6668 233.654 47.9991 233.654H49.8144V164.906C75.3084 163.948 95.7559 142.928 95.7559 117.221C95.7559 91.5141 75.3084 70.4869 49.8144 69.5292V4.07516C49.8144 3.07387 49.0011 2.26123 47.9991 2.26123C46.997 2.26123 46.1838 3.07387 46.1838 4.07516V73.1208H47.9991C72.3313 73.1208 92.1253 92.9072 92.1253 117.221C92.1253 141.535 72.3313 161.314 47.9991 161.314H46.1838V230.062C20.6897 231.02 0.242188 252.047 0.242188 277.754C0.242188 303.461 20.6897 324.489 46.1838 325.439V391.822H47.9991C72.3313 391.822 92.1253 411.601 92.1253 435.915C92.1253 460.229 72.3313 480.015 47.9991 480.015H46.1838V548.763C20.6897 549.721 0.242188 570.741 0.242188 596.448C0.242188 622.155 20.6897 643.182 46.1838 644.14V644.263H49.8144Z" fill="#F5F5F5"/>
<path d="M49.52 13.6469C52.6829 12.8083 54.5666 9.56636 53.7274 6.40582C52.8882 3.24528 49.6438 1.36296 46.4809 2.20156C43.318 3.04015 41.4342 6.2821 42.2735 9.44264C43.1127 12.6032 46.3571 14.4855 49.52 13.6469Z" fill="#F5F5F5"/>
</svg>
